:FULLY-SPECIFIED
:FORCE-ALL-JOINTS-BE-3DOF
:DEGREES
15
root 3.93632 17.1463 -31.5415 6.98708 -3.2822 -1.25694
lfemur -5.7818 -5.42753 -18.7715
ltibia 10.4028 0 0
lfoot 14.5558 7.18118 -1.67816
ltoes -8.98246 0 0
rfemur -20.8645 6.33276 24.597
rtibia 33.4824 0 0
rfoot -9.47422 -1.27656 0.0238861
rtoes -5.36166 0 0
lowerback 3.20857 -1.23783 -1.57077
upperback -1.10417 -1.76849 1.2515
thorax -2.76423 -0.775557 2.67336
lowerneck -12.2511 -0.769782 -6.52004
upperneck 3.98448 -0.631436 7.82555
head 3.67497 -0.0846682 3.23414
lclavicle -4.23816e-14 6.75868e-15 -4.18276e-31
lhumerus -27.8826 -14.3163 88.6361
lradius 75.7661 0 0
lwrist 18.317 0 0
lhand -22.3694 -9.88095 -1.69859
lfingers 7.12502 0 0
lthumb 4.042 19.5355 -1.67671
rclavicle -4.23816e-14 6.75868e-15 -4.18276e-31
rhumerus -53.5959 10.7975 -85.3947
rradius 73.6557 0 0
rwrist -18.4378 0 0
rhand -38.6069 5.31795 -2.38817
rfingers 7.12502 0 0
rthumb -11.6175 -24.2057 -2.33059
16
root 3.95359 17.1656 -31.1832 7.11291 -3.78636 -1.31507
lfemur -5.29927 -5.84846 -18.7109
ltibia 9.8697 0 0
lfoot 14.3472 6.84371 -1.94853
ltoes -8.95303 0 0
rfemur -20.0748 6.61899 24.6558
rtibia 30.5277 0 0
rfoot -9.39974 -0.860132 0.0558893
rtoes -5.54148 0 0
lowerback 2.97154 -1.31483 -1.55334
upperback -1.28638 -1.86102 1.44604
thorax -2.80283 -0.819607 2.89494
lowerneck -11.8998 -0.556164 -6.80357
upperneck 3.99089 -0.346494 7.83277
head 3.61364 0.0691291 3.27462
lclavicle 2.10215e-14 -7.15625e-15 -1.36434e-30
lhumerus -28.719 -14.1759 89.0027
lradius 75.6816 0 0
lwrist 17.9062 0 0
lhand -22.752 -10.618 -1.65469
lfingers 7.12502 0 0
lthumb 3.67285 18.7725 -1.63306
rclavicle 2.10215e-14 -7.15625e-15 -1.36434e-30
rhumerus -54.0497 11.1523 -85.3325
rradius 74.0901 0 0
rwrist -18.5375 0 0
rhand -37.9821 4.0581 -2.39294
rfingers 7.12502 0 0
rthumb -11.0159 -25.5111 -2.33203
17
root 3.97295 17.1787 -30.8311 7.26158 -4.13872 -1.15409
lfemur -4.89297 -6.41562 -18.8995
ltibia 9.51805 0 0
lfoot 14.4258 6.47262 -2.19984
ltoes -6.78564 0 0
rfemur -19.2372 6.70837 24.483
rtibia 27.4652 0 0
rfoot -9.12516 -0.4016 0.0884541
rtoes -6.3636 0 0
lowerback 2.62184 -1.30431 -1.54108
upperback -1.13092 -1.84772 1.37675
thorax -2.44815 -0.819225 2.79201
lowerneck -12.5477 -0.497935 -6.58265
upperneck 3.91693 -0.242386 7.75368
head 3.69947 0.115108 3.22836
lclavicle -4.22417e-14 -5.96355e-16 -2.54644e-30
lhumerus -28.6979 -14.5177 89.005
lradius 75.407 0 0
lwrist 17.3528 0 0
lhand -22.9927 -11.2198 -1.70058
lfingers 7.12502 0 0
lthumb 3.44095 18.174 -1.67508
rclavicle -4.22417e-14 -5.96355e-16 -2.54644e-30
rhumerus -53.8569 10.8386 -85.4892
rradius 74.4584 0 0
rwrist -18.6538 0 0
rhand -37.732 4.4411 -2.38335
rfingers 7.12502 0 0
rthumb -10.7749 -25.14 -2.32256
18
root 3.99609 17.1911 -30.4862 7.31407 -4.45817 -1.19902
lfemur -5.88333 -7.16212 -19.0414
ltibia 12.2727 0 0
lfoot 12.81 6.70442 -2.35713
ltoes -6.80972 0 0
rfemur -18.2349 6.71674 24.5831
rtibia 24.4714 0 0
rfoot -8.68065 -0.003805 0.0989785
rtoes -7.47345 0 0
lowerback 2.54059 -1.31984 -1.33231
upperback -1.12955 -1.86529 1.4303
thorax -2.39814 -0.827444 2.74088
lowerneck -12.4573 -0.402538 -6.62472
upperneck 3.65199 -0.090178 7.63432
head 3.58992 0.180666 3.19061
lclavicle -5.70263e-15 1.22252e-14 3.55255e-31
lhumerus -29.2238 -14.8391 89.2996
lradius 75.291 0 0
lwrist 17.0311 0 0
lhand -23.0207 -10.7261 -1.80924
lfingers 7.12502 0 0
lthumb 3.41425 18.6797 -1.77896
rclavicle -5.70263e-15 1.22252e-14 3.55255e-31
rhumerus -53.8852 10.7943 -85.6028
rradius 74.763 0 0
rwrist -18.8308 0 0
rhand -38 5.754 -2.21134
rfingers 7.12502 0 0
rthumb -11.0335 -23.8203 -2.15548
19
root 4.01205 17.2048 -30.1408 7.13866 -5.14594 -1.32215
lfemur -6.56252 -7.56027 -19.084
ltibia 14.9551 0 0
lfoot 11.205 7.42727 -2.38152
ltoes -10.0378 0 0
rfemur -16.9566 7.24169 24.7098
rtibia 21.6781 0 0
rfoot -8.29717 -0.00543 0.086572
rtoes -7.16783 0 0
lowerback 2.67892 -1.16671 -0.99501
upperback -1.03246 -1.65237 1.311
thorax -2.37746 -0.728638 2.43273
lowerneck -12.4792 -0.290506 -6.45419
upperneck 3.42037 0.0409767 7.63457
head 3.50958 0.250781 3.14256
lclavicle 1.18091e-14 -8.94533e-15 1.11534e-31
lhumerus -29.8371 -15.4698 89.4264
lradius 75.3126 0 0
lwrist 16.887 0 0
lhand -23.1406 -9.90155 -1.8335
lfingers 7.12502 0 0
lthumb 3.29885 19.5066 -1.80122
rclavicle 1.18091e-14 -8.94533e-15 1.11534e-31
rhumerus -53.7645 10.3833 -85.887
rradius 74.9065 0 0
rwrist -18.6939 0 0
rhand -38.2634 5.8821 -2.16724
rfingers 7.12502 0 0
rthumb -11.2875 -23.6808 -2.1128
20
root 4.0148 17.2137 -29.8052 7.66758 -6.43085 -1.61647
lfemur -7.70044 -7.29374 -18.6087
ltibia 17.2935 0 0
lfoot 12.4913 8.47656 -2.51129
ltoes -2.83671 0 0
rfemur -16.4238 8.43979 24.7171
rtibia 18.9515 0 0
rfoot -7.59682 -0.382399 0.0533862
rtoes -7.69831 0 0
lowerback 2.0973 -0.762468 -0.402458
upperback -0.988516 -1.09525 1.01961
thorax -2.01991 -0.467813 1.81261
lowerneck -12.8769 -0.211075 -5.90611
upperneck 3.18164 0.101646 7.67574
head 3.48898 0.28173 3.05756
lclavicle -3.4615e-14 1.49088e-14 3.76974e-30
lhumerus -30.2064 -16.2445 89.1762
lradius 75.2304 0 0
lwrist 16.7916 0 0
lhand -23.0348 -9.41988 -1.76651
lfingers 7.12502 0 0
lthumb 3.40095 20.0034 -1.73659
rclavicle -3.4615e-14 1.49088e-14 3.76974e-30
rhumerus -53.3495 9.60779 -86.4714
rradius 75.0012 0 0
rwrist -18.4668 0 0
rhand -38.2854 4.5728 -2.46469
rfingers 7.12502 0 0
rthumb -11.3077 -24.9674 -2.40419
21
root 4.03731 17.2083 -29.4592 7.53527 -6.67306 -1.55478
lfemur -8.31835 -7.53988 -18.877
ltibia 19.7105 0 0
lfoot 12.5569 9.13793 -2.37904
ltoes -1.76478 0 0
rfemur -15.1498 8.33115 24.783
rtibia 16.6288 0 0
rfoot -7.24441 -0.894127 0.0127884
rtoes -8.53331 0 0
lowerback 1.88218 -0.798047 -0.048605
upperback -0.70921 -1.13625 0.793439
thorax -1.63097 -0.499593 1.34839
lowerneck -12.7931 -0.118773 -5.70609
upperneck 2.60561 0.23479 7.75454
head 3.27447 0.326865 3.04846
lclavicle -2.54499e-14 -3.7272e-15 -1.66918e-30
lhumerus -30.6977 -16.4326 89.0382
lradius 75.0143 0 0
lwrist 16.7644 0 0
lhand -22.7867 -9.39292 -1.62487
lfingers 7.12502 0 0
lthumb 3.64065 20.0682 -1.59947
rclavicle -2.54499e-14 -3.7272e-15 -1.66918e-30
rhumerus -52.8041 9.32134 -86.954
rradius 75.046 0 0
rwrist -18.2702 0 0
rhand -37.9806 3.3208 -2.74657
rfingers 7.12502 0 0
rthumb -11.0128 -26.2149 -2.67981
22
root 4.07898 17.1885 -29.1056 6.79879 -6.10175 -1.2077
lfemur -8.45919 -7.24476 -19.8202
ltibia 22.0947 0 0
lfoot 10.2186 8.95054 -1.9648
ltoes -13.0449 0 0
rfemur -13.1285 7.24597 24.9286
rtibia 14.5344 0 0
rfoot -7.13599 -1.55637 -0.0358807
rtoes -9.11852 0 0
lowerback 2.7097 -1.0808 -0.250331
upperback -0.677919 -1.51347 0.893974
thorax -2.04426 -0.682874 1.55145
lowerneck -12.2178 -0.100548 -6.08451
upperneck 2.15633 0.294 7.70778
head 3.02505 0.358913 3.07474
lclavicle -2.87151e-15 2.98178e-15 -1.00162e-31
lhumerus -31.8436 -16.2573 89.8164
lradius 74.5735 0 0
lwrist 16.4902 0 0
lhand -22.8825 -9.06533 -1.64558
lfingers 7.12502 0 0
lthumb 3.5486 20.4099 -1.6179
rclavicle -2.87151e-15 2.98178e-15 -1.00162e-31
rhumerus -52.8392 9.47765 -86.7715
rradius 75.1287 0 0
rwrist -18.1698 0 0
rhand -37.8203 4.29845 -2.6292
rfingers 7.12502 0 0
rthumb -10.8584 -25.2478 -2.56562
23
root 4.07768 17.1765 -28.7768 7.44077 -7.7628 -1.72926
lfemur -9.71599 -5.43246 -18.9314
ltibia 24.6892 0 0
lfoot 11.0514 9.6778 -2.01058
ltoes -10.8885 0 0
rfemur -12.3943 8.53501 25.2895
rtibia 11.8702 0 0
rfoot -5.91512 -2.68493 -0.06836
rtoes -10.9258 0 0
lowerback 1.14108 -0.616368 0.000417552
upperback -0.173529 -0.879427 1.04013
thorax -0.624629 -0.392131 1.54197
lowerneck -12.2888 -0.0888702 -6.16966
upperneck 1.41541 0.360859 7.74141
head 2.78123 0.385422 3.0654
lclavicle -3.00663e-15 8.19988e-15 -2.35513e-31
lhumerus -31.5759 -16.2412 89.6632
lradius 73.8792 0 0
lwrist 16.1822 0 0
lhand -22.9524 -8.497 -1.76495
lfingers 7.12502 0 0
lthumb 3.4813 20.9858 -1.73215
rclavicle -3.00663e-15 8.19988e-15 -2.35513e-31
rhumerus -51.5862 9.42452 -86.9437
rradius 75.0701 0 0
rwrist -18.2231 0 0
rhand -37.4682 5.74965 -2.35369
rfingers 7.12502 0 0
rthumb -10.5199 -23.8349 -2.29517
24
root 4.11975 17.1367 -28.4127 6.37833 -6.79727 -1.40038
lfemur -9.76716 -4.85558 -20.0576
ltibia 27.4459 0 0
lfoot 11.57 9.1629 -1.64896
ltoes -10.0193 0 0
rfemur -9.84879 7.01161 25.721
rtibia 10.1803 0 0
rfoot -5.4912 -3.81396 -0.13084
rtoes -13.3288 0 0
lowerback 1.77179 -0.99129 -0.0534229
upperback 0.246227 -1.37048 0.968087
thorax -0.569004 -0.64441 1.39232
lowerneck -12.0402 -0.0707067 -6.15778
upperneck 1.06941 0.397704 7.6526
head 2.61101 0.389641 3.01982
lclavicle -1.10388e-14 -1.13307e-14 -2.55849e-31
lhumerus -32.1977 -16.1304 89.9126
lradius 73.266 0 0
lwrist 16.0458 0 0
lhand -22.7962 -8.16907 -1.7814
lfingers 7.12502 0 0
lthumb 3.63215 21.326 -1.74835
rclavicle -1.10388e-14 -1.13307e-14 -2.55849e-31
rhumerus -51.1861 9.47429 -87.1308
rradius 75.0942 0 0
rwrist -18.2911 0 0
rhand -37.2478 5.2292 -2.21012
rfingers 7.12502 0 0
rthumb -10.3083 -24.383 -2.15324
25
root 4.12751 17.1147 -28.0753 5.97782 -8.22564 -1.61083
lfemur -9.92251 -3.38101 -19.4331
ltibia 30.4246 0 0
lfoot 11.0318 10.0622 -1.64979
ltoes -9.58921 0 0
rfemur -8.65413 7.75014 25.9165
rtibia 9.52305 0 0
rfoot -4.56605 -4.31568 -0.167384
rtoes -13.1579 0 0
lowerback 1.94053 -0.478189 -0.0338904
upperback 0.62713 -0.682958 1.07316
thorax -0.287684 -0.309233 1.47594
lowerneck -12.1346 -0.0887847 -6.00212
upperneck 0.777351 0.39915 7.4641
head 2.5249 0.364967 2.94114
lclavicle -2.004e-14 -4.1745e-15 2.60167e-30
lhumerus -32.5032 -16.1063 90.134
lradius 72.4631 0 0
lwrist 15.9198 0 0
lhand -23.4378 -8.7489 -1.77589
lfingers 7.12502 0 0
lthumb 3.0133 20.7203 -1.7399
rclavicle -2.004e-14 -4.1745e-15 2.60167e-30
rhumerus -50.5029 9.31858 -87.3053
rradius 75.0578 0 0
rwrist -18.236 0 0
rhand -36.9458 4.70895 -2.09408
rfingers 7.12502 0 0
rthumb -10.0176 -24.9293 -2.03876
